# xmcd
#
# Track frame offsets:
#	150
#	14400
#	27150
#	39225
#	54825
#	69075
#	82200
#	98175
#	112650
#	126675
#	139050
#	152550
#	167850
#	182175
#	196875
#	210900
#	225600
#	240525
#	255150
#	270000
#
# Disc length: 3780 seconds
#
# Revision: 0
# Processed by: cddbd v1.5.2PL0 Copyright (c) Steve Scherf et al.
# Submitted via: EasyCDDAExtractor 16.0.6.1
#
DISCID=f70ec214
DTITLE=Αναγνωστάκης Πέτρος - Πορτραίτα minos 07-Π. Αναγνωστάκης
DYEAR=1995
DGENRE=Λαϊκή
TTITLE0=Αναγνωστάκης Πέτρος-Καλάκη Ρούλα - Μέσα σε μιά νύχτα [Γ. Μανισαλή-Κ. Β
TTITLE0=ίρβου]
TTITLE1=Αναγνωστάκης Πέτρος-Αστέρη Ανθούλα - Περπατώ και σφυρίζω θλιμμένα [Μ. 
TTITLE1=Μπακάλη-Κ. Βίρβου]
TTITLE2=Αναγνωστάκης Πέτρος-Καλάκη Ρούλα - Δέκα συμβουλές [Θ. Δερβενιώτη-Κ. Βί
TTITLE2=ρβου]
TTITLE3=Αναγνωστάκης Πέτρος-Διαμάντη Λίτσα - Στόλισε την κάμαρά σου [Μ. Μπακάλ
TTITLE3=η-Δ. Γκούτη]
TTITLE4=Αναγνωστάκης Πέτρος-Καλάκη Ρούλα - Ύποπτος ο έρωτάς σου [Μ. Μπακάλη]
TTITLE5=Αναγνωστάκης Πέτρος-Αντωνάτου Νίτσα - Οι αναμνήσεις [Θ. Δερβενιώτη-Κ. 
TTITLE5=Βίρβου]
TTITLE6=Αναγνωστάκης Πέτρος-Κούρτη Ρία - Ήρθα κι απόψε στα σκαλοπάτια σου [Γ. 
TTITLE6=Ζαμπέτα-Χ. Βασιλειάδη]
TTITLE7=Αναγνωστάκης Πέτρος - Μεγάλη θλίψη [Μπ. Μπαλτόπουλου]
TTITLE8=Αναγνωστάκης Πέτρος - Δεν ανθίζουν τα λουλούδια [Μ. Μπακάλη-Δ. Γκούτη]
TTITLE9=Αναγνωστάκης Πέτρος-Καλάκη Ρούλα - Για να μην μάς τυραννάνε [Μ. Μπακάλ
TTITLE9=η-Δ. Γκούτη]
TTITLE10=Αναγνωστάκης Πέτρος-Αντωνάτου Νίτσα - Πληγωμένοι κι οι δυό [Μ. Μπακάλ
TTITLE10=η-Δ. Γκούτη]
TTITLE11=Αναγνωστάκης Πέτρος-Διαμάντη Λίτσα - Πρόσεχε όμως [Λ. Μαρκέα-Κ. Βίρβο
TTITLE11=υ]
TTITLE12=Αναγνωστάκης Πέτρος-Γρίλλη Μαρία - Μαύρη κατάρα [Μπ. Μπαλτόπουλου]
TTITLE13=Αναγνωστάκης Πέτρος-Καλάκη Ρούλα - Έδειξες ποια ήσουνα [Μ. Μπακάλη-Δ.
TTITLE13=Γκούτη]
TTITLE14=Αναγνωστάκης Πέτρος-Καλάκη Ρούλα - Κάποιο τραίνο [Γ. Μανισαλή-Κ. Βίρβ
TTITLE14=ου]
TTITLE15=Αναγνωστάκης Πέτρος-Αντωνάτου Νίτσα - Πληροφορίες κακές [Μπ. Μπακάλη]
TTITLE16=Αναγνωστάκης Πέτρος - Να φύγω, να φύγω [Γ. Μανισαλή-Κ. Βίρβου]
TTITLE17=Αναγνωστάκης Πέτρος-Μάριος - Πίνω νερό στο όνομά σου [Β. Βασιλειάδη-Π
TTITLE17=υθαγόρα]
TTITLE18=Αναγνωστάκης Πέτρος-Καλάκη Ρούλα - Για μένα φτάνει ο χειμώνας [Θ. Δερ
TTITLE18=βενιώτη-Κ. Βίρβου]
TTITLE19=Αναγνωστάκης Πέτρος-Καλάκη Ρούλα - Να γίνω μαύρος κεραυνός [Γ. Μανισα
TTITLE19=λή]
EXTD=YEAR: 1995\n
EXTT0=
EXTT1=
EXTT2=
EXTT3=
EXTT4=
EXTT5=
EXTT6=
EXTT7=
EXTT8=
EXTT9=
EXTT10=
EXTT11=
EXTT12=
EXTT13=
EXTT14=
EXTT15=
EXTT16=
EXTT17=
EXTT18=
EXTT19=
PLAYORDER=
